<svg width="20" height="10" viewBox="0 0 20 10" fill="none" xmlns="http://www.w3.org/2000/svg">
<path fill-rule="evenodd" clip-rule="evenodd" d="M10.0018 0.117676C12.6762 0.117676 14.7693 2.35297 14.7693 4.94121C14.7693 7.64709 12.6762 9.88238 10.0018 9.88238C7.3274 9.88238 5.23438 7.64709 5.23438 4.94121C5.23438 2.35297 7.3274 0.117676 10.0018 0.117676ZM10.0018 0.705911C12.3274 0.705911 14.1879 2.70591 14.1879 4.94121C14.1879 7.29415 12.3274 9.29415 10.0018 9.29415C7.67624 9.29415 5.81577 7.29415 5.81577 4.94121C5.81577 2.70591 7.67624 0.705911 10.0018 0.705911Z" fill="#6D6A67"/>
<path fill-rule="evenodd" clip-rule="evenodd" d="M10 0C14.186 0 17.7907 2 20 4.94118C17.7907 8 14.186 10 10 10C5.81395 10 2.2093 8 0 4.94118C2.2093 2 5.81395 0 10 0ZM10 1.05882C13.6047 1.05882 16.8605 2.58824 18.7209 4.94118C16.8605 7.41176 13.6047 8.94118 10 8.94118C6.39535 8.94118 3.13953 7.41176 1.27907 4.94118C3.13953 2.58824 6.39535 1.05882 10 1.05882Z" fill="#6D6A67"/>
<path d="M10.0005 7.41176C11.3491 7.41176 12.4423 6.30564 12.4423 4.94117C12.4423 3.5767 11.3491 2.47058 10.0005 2.47058C8.65185 2.47058 7.55859 3.5767 7.55859 4.94117C7.55859 6.30564 8.65185 7.41176 10.0005 7.41176Z" fill="#6D6A67"/>
</svg>
