<svg width="49" height="28" viewBox="0 0 49 28" fill="none" xmlns="http://www.w3.org/2000/svg">
<path fill-rule="evenodd" clip-rule="evenodd" d="M0 27.9999H47.9984V0H0V27.9999Z" fill="#FEFEFE"/>
<path fill-rule="evenodd" clip-rule="evenodd" d="M32.0781 10.1709L47.9978 1.31623V0H46.8008L28.7266 10.1709H32.0781Z" fill="#BE2836"/>
<path fill-rule="evenodd" clip-rule="evenodd" d="M31.3594 18.427L47.9972 27.7603V25.8458L34.7109 18.427H31.3594Z" fill="#BE2836"/>
<path fill-rule="evenodd" clip-rule="evenodd" d="M0 2.15375L14.1242 10.1708H17.4757L0 0.358887V2.15375Z" fill="#BE2836"/>
<path fill-rule="evenodd" clip-rule="evenodd" d="M16.7576 18.427L0 27.88V27.9996H2.99242L20.1091 18.427H16.7576Z" fill="#BE2836"/>
<path fill-rule="evenodd" clip-rule="evenodd" d="M44.6443 0H27.8867V9.45296L44.6443 0Z" fill="#363571"/>
<path fill-rule="evenodd" clip-rule="evenodd" d="M20.4685 0H3.71094L20.4685 9.45296V0Z" fill="#363571"/>
<path fill-rule="evenodd" clip-rule="evenodd" d="M48.0026 10.1707V3.70923L36.5117 10.1707H48.0026Z" fill="#363571"/>
<path fill-rule="evenodd" clip-rule="evenodd" d="M48.0026 24.7689V18.427H36.5117L48.0026 24.7689Z" fill="#363571"/>
<path fill-rule="evenodd" clip-rule="evenodd" d="M4.66797 27.9999H20.468V19.1453L4.66797 27.9999Z" fill="#363571"/>
<path fill-rule="evenodd" clip-rule="evenodd" d="M27.8867 27.9999H43.6867L27.8867 19.1453V27.9999Z" fill="#363571"/>
<path fill-rule="evenodd" clip-rule="evenodd" d="M0 18.427V25.1278L11.7303 18.427H0Z" fill="#363571"/>
<path fill-rule="evenodd" clip-rule="evenodd" d="M0 10.171H11.7303L0 3.47021V10.171Z" fill="#363571"/>
<path fill-rule="evenodd" clip-rule="evenodd" d="M21.9045 0V11.8461H0V16.7521H21.9045V27.9999H26.3333V16.7521H47.9984V11.8461H26.3333V0H21.9045Z" fill="#BE2836"/>
</svg>
