<svg width="100" height="113" viewBox="0 0 100 113" fill="none" xmlns="http://www.w3.org/2000/svg">
<path fill-rule="evenodd" clip-rule="evenodd" d="M1.70118 0.185547C3.81723 16.3363 17.4657 30.2704 27.9402 30.3759C32.1723 27.948 40.5307 26.5757 49.5239 26.5757H50.0529H50.5819C59.4693 26.5757 67.8277 27.948 72.1656 30.3759C82.5342 30.2704 96.1828 16.3363 98.2988 0.185547C102.214 19.0809 99.1452 32.0649 91.4217 43.7822C91.1042 56.0272 90.4694 62.7831 82.7459 70.1724C84.1213 73.867 84.8619 87.801 72.8004 90.7567C67.8277 102.58 60.8447 109.969 50.8993 112.186L50.0529 111.974L49.1007 112.186C39.2611 109.969 32.1723 102.58 27.1996 90.7567C15.1381 87.801 15.8787 73.867 17.2541 70.1724C9.53056 62.7831 8.89575 56.0272 8.57834 43.7822C0.854762 32.0649 -2.21351 19.0809 1.70118 0.185547Z" fill="#2F133B"/>
</svg>
