<svg width="200" height="234" viewBox="0 0 200 234" fill="none" xmlns="http://www.w3.org/2000/svg">
<path fill-rule="evenodd" clip-rule="evenodd" d="M99.944 35.495C121.905 35.495 142.185 42.505 158.655 54.4108C160.784 55.0785 163.473 54.5221 165.826 51.7404C173.333 42.8388 179.16 26.816 181.176 27.2611C183.866 27.8174 188.571 50.6277 185.322 66.3167C184.426 70.3224 183.193 74.2168 181.849 77.6662C193.277 93.8003 200 113.495 200 134.747C200 189.603 155.182 234 99.944 234C44.8179 234 0 189.603 0 134.747C0 113.495 6.72269 93.8003 18.1513 77.6662C16.6947 74.2168 15.5742 70.3224 14.6779 66.3167C11.4286 50.6277 16.1345 27.8174 18.7115 27.2611C20.8403 26.816 26.5546 42.8388 34.1737 51.7404C36.5266 54.5221 39.2157 55.0785 41.2325 54.4108C57.8151 42.505 78.0952 35.495 99.944 35.495ZM99.944 40.7247C152.829 40.7247 195.742 83.2297 195.742 135.749C195.742 188.268 152.829 230.773 99.944 230.773C47.1709 230.773 4.2577 188.268 4.2577 135.749C4.2577 83.2297 47.1709 40.7247 99.944 40.7247ZM149.132 42.2825C134.454 34.4936 117.759 30.1541 99.944 30.1541C82.2409 30.1541 65.5462 34.4936 50.9804 42.1712L50.7563 42.0599L41.6807 47.2896C39.888 48.291 37.6471 47.6234 36.5266 45.8431L25.2101 26.2596C24.0896 24.4793 24.7619 22.1427 26.5546 21.1412L35.6303 16.0228V16.1341C54.7899 5.78602 76.7507 0 99.944 0C123.249 0 145.21 5.78602 164.258 16.1341L164.37 16.0228L173.445 21.1412C175.238 22.1427 175.798 24.4793 174.79 26.2596L163.473 45.8431C162.353 47.6234 160 48.291 158.207 47.2896L149.244 42.0599L149.132 42.2825Z" fill="url(#paint0_linear)"/>
<path fill-rule="evenodd" clip-rule="evenodd" d="M121.794 30.1537C114.847 28.3734 107.564 27.372 99.9454 27.372C92.2144 27.372 84.5953 28.4846 77.4244 30.3762L77.3124 30.0424L75.9679 30.5988C74.3992 31.1551 72.6065 30.3762 72.0463 28.8185L65.5477 12.2393C64.9875 10.6815 65.7718 8.9012 67.3404 8.34485L68.6849 7.7885L68.5729 7.56596C78.5449 4.56168 89.0771 3.00391 99.9454 3.00391C110.926 3.00391 121.57 4.56168 131.542 7.56596L131.43 7.89977L132.663 8.34485C134.231 8.9012 135.015 10.6815 134.343 12.2393L127.957 28.8185C127.284 30.3762 125.492 31.1551 123.923 30.5988L121.906 29.8199L121.794 30.1537Z" fill="#FEFEFE"/>
<defs>
<linearGradient id="paint0_linear" x1="99.9854" y1="234.011" x2="99.9854" y2="-0.0445031" gradientUnits="userSpaceOnUse">
<stop stop-color="#EB9E30"/>
<stop offset="0.541436" stop-color="#E4B744"/>
<stop offset="0.9999" stop-color="#F6DB91"/>
<stop offset="1" stop-color="#F6DB91"/>
</linearGradient>
</defs>
</svg>
