<svg width="58" height="57" viewBox="0 0 58 57" fill="none" xmlns="http://www.w3.org/2000/svg">
<path fill-rule="evenodd" clip-rule="evenodd" d="M46.1992 12.5249C52.5127 15.2727 56.7836 22.5346 56.7836 31.9555C56.7836 44.3203 49.5416 45.1054 40.4427 45.1054C40.4427 44.1241 40.6284 43.1427 40.6284 42.1614C40.6284 40.395 40.4427 38.6286 40.0713 36.8622H41.1855V35.0957C42.1139 35.0957 42.8567 34.8995 43.4138 34.5069C43.9709 34.1144 44.5279 33.7219 44.8993 32.9368C45.2707 32.348 45.4564 31.3666 45.4564 30.3853C45.4564 29.2077 45.2707 28.0301 44.7136 27.245C44.1565 26.2637 43.0424 25.2823 41.1855 24.1047V19.5906C41.9282 19.9831 42.671 20.9644 43.2281 22.3383C43.4138 22.5346 43.5995 22.7309 43.5995 22.7309C43.7852 22.7309 43.9709 22.9271 44.3422 22.9271C44.7136 22.9271 44.8993 22.7309 44.8993 22.5346C44.8993 22.5346 44.8993 22.142 44.7136 21.5532C44.7136 21.357 44.7136 21.357 44.7136 21.357L44.1565 18.6092C44.1565 18.413 44.1565 18.2167 44.1565 18.2167C44.1565 18.0204 44.1565 18.0204 43.9709 18.0204H43.7852H43.2281C43.0424 18.0204 43.0424 18.0204 42.8567 18.2167C42.8567 18.413 42.671 18.6092 42.671 18.6092C41.9282 18.2167 41.3712 18.0204 41.1855 18.0204V16.8428H39.3286V17.8241C38.2144 17.8241 37.286 18.2167 36.7289 18.6092C36.1718 19.0018 35.8004 19.5906 35.429 20.1794C35.2433 20.5719 35.0577 21.357 35.0577 22.142C35.0577 24.4973 36.5432 26.4599 39.3286 28.2264V33.3293L39.1429 33.1331C37.286 28.2264 33.9435 24.4973 30.044 22.7309C30.4154 22.142 30.6011 21.7495 30.6011 21.1607C30.6011 19.9831 29.8583 19.198 28.7441 18.413C28.9298 18.413 28.9298 18.413 29.1155 18.2167C32.2723 16.6465 34.3149 14.2913 33.5721 12.9174V12.7212C33.7578 12.7212 33.9435 12.5249 34.1292 12.5249C33.7578 11.9361 33.5721 11.5436 33.5721 10.9548C33.5721 9.97342 34.3149 8.99208 35.429 8.40328C35.2433 8.20701 35.2433 8.20701 35.0577 8.01074C31.9009 6.4406 29.8583 4.08538 30.6011 2.7115C31.1581 1.14136 34.3149 1.33763 37.286 2.90777C38.4001 3.49658 39.5143 4.08538 40.257 4.87045C40.9998 4.08538 41.9282 3.49658 43.0424 2.90777C46.1992 1.33763 49.1702 1.14136 49.913 2.7115C50.4701 4.08538 48.6131 6.4406 45.4564 8.01074C45.2707 8.20701 45.085 8.20701 44.8993 8.40328C46.1992 8.99208 46.9419 9.97342 46.9419 10.9548C46.9419 11.5436 46.7562 11.9361 46.1992 12.5249ZM39.3286 22.9271V19.0018C38.9572 19.0018 38.5858 19.198 38.2144 19.5906C38.0287 19.9831 37.843 20.1794 37.843 20.5719C37.843 21.357 38.4001 22.142 39.3286 22.9271ZM41.1855 29.404V33.7219C42.2996 33.5256 42.8567 32.9368 42.8567 31.9555C42.8567 30.9741 42.2996 30.189 41.1855 29.404Z" fill="#2B2A29"/>
<path fill-rule="evenodd" clip-rule="evenodd" d="M44.7499 13.1143C51.0634 15.862 55.3344 23.1239 55.3344 32.5448C55.3344 44.9097 48.0924 45.6948 38.9935 45.6948C38.9935 44.7134 39.1792 43.7321 39.1792 42.7507C39.1792 40.9843 38.9935 39.2179 38.6221 37.4515H39.7363V35.6851C40.6647 35.4888 41.4075 35.2926 41.9646 35.0963C42.5216 34.7038 43.0787 34.3112 43.4501 33.5261C43.8215 32.9373 44.0072 31.956 44.0072 30.9747C44.0072 29.7971 43.8215 28.6194 43.2644 27.8344C42.7073 26.853 41.4075 25.6754 39.7363 24.4978V20.1799C40.479 20.5725 41.2218 21.5538 41.7789 22.7314C41.9646 23.1239 42.1503 23.3202 42.1503 23.3202C42.3359 23.3202 42.5216 23.5165 42.893 23.5165C43.2644 23.5165 43.4501 23.3202 43.4501 23.1239C43.4501 23.1239 43.4501 22.7314 43.2644 22.1426C43.2644 21.9463 43.2644 21.9463 43.2644 21.9463L42.7073 19.1986C42.7073 19.0023 42.7073 18.806 42.7073 18.806C42.7073 18.6098 42.7073 18.6098 42.5216 18.6098H42.3359H41.7789C41.5932 18.6098 41.4075 18.6098 41.4075 18.806C41.2218 19.0023 41.2218 19.1986 41.0361 19.1986C40.479 18.806 39.922 18.6098 39.7363 18.6098V17.4322H37.8793V18.4135C36.7652 18.4135 35.8367 18.806 35.2797 19.1986C34.7226 19.5911 34.1655 20.1799 33.9798 20.7687C33.7941 21.1613 33.6084 21.9463 33.6084 22.7314C33.6084 25.0866 35.094 27.0493 37.8793 28.8157V33.9187C37.8793 33.9187 37.6937 33.7224 37.508 33.7224C35.8367 28.8157 32.4943 25.0866 28.5948 23.3202C28.9661 22.7314 29.1518 22.1426 29.1518 21.7501C29.1518 20.5725 28.4091 19.7874 27.2949 19.0023C27.2949 19.0023 27.4806 19.0023 27.6663 18.806C30.8231 17.2359 32.68 14.8807 32.1229 13.5068V13.3105C32.3086 13.3105 32.4943 13.1143 32.68 13.1143C32.3086 12.5255 32.1229 12.1329 32.1229 11.5441C32.1229 10.5628 32.8657 9.58144 33.9798 8.79637C33.7941 8.79637 33.6084 8.79637 33.6084 8.6001C30.4517 7.02995 28.4091 4.67474 29.1518 3.30086C29.7089 1.73071 32.8657 1.92698 35.8367 3.49713C36.9509 4.08593 38.065 4.67474 38.8078 5.45981C39.5506 4.67474 40.479 4.08593 41.5932 3.49713C44.7499 1.92698 47.721 1.73071 48.4638 3.30086C49.0208 4.67474 46.9782 7.02995 44.0072 8.6001C43.8215 8.79637 43.6358 8.79637 43.4501 8.79637C44.7499 9.58144 45.4927 10.5628 45.4927 11.5441C45.4927 12.1329 45.307 12.5255 44.7499 13.1143ZM37.8793 23.5165V19.5911C37.508 19.5911 37.1366 19.7874 36.7652 20.1799C36.5795 20.3762 36.3938 20.7687 36.3938 21.1613C36.3938 21.9463 36.9509 22.7314 37.8793 23.5165ZM39.7363 29.9933V34.3112C40.8504 34.115 41.4075 33.5261 41.4075 32.5448C41.4075 31.5635 40.8504 30.7784 39.7363 29.9933Z" fill="#D30131"/>
<path fill-rule="evenodd" clip-rule="evenodd" d="M43.4473 13.1143C49.5752 15.862 54.0318 23.1239 54.0318 32.5448C54.0318 44.9097 46.6041 45.6948 37.5052 45.6948C37.6909 44.7134 37.6909 43.7321 37.6909 42.7507C37.6909 40.9843 37.5052 39.2179 37.3195 37.4515H38.4337V35.6851C39.3621 35.4888 40.1049 35.2926 40.662 35.0963C41.219 34.7038 41.5904 34.3112 42.1475 33.5261C42.5189 32.9373 42.7046 31.956 42.7046 30.9747C42.7046 29.7971 42.3332 28.6194 41.7761 27.8344C41.219 26.853 40.1049 25.6754 38.4337 24.4978V20.1799C39.1764 20.5725 39.7335 21.5538 40.4763 22.7314C40.662 23.1239 40.662 23.3202 40.8477 23.3202C40.8477 23.3202 41.0334 23.5165 41.5904 23.5165C41.9618 23.5165 42.1475 23.3202 42.1475 23.1239C42.1475 23.1239 41.9618 22.7314 41.9618 22.1426C41.9618 21.9463 41.9618 21.9463 41.9618 21.9463L41.4047 19.1986C41.4047 19.0023 41.4047 18.806 41.4047 18.806C41.219 18.6098 41.219 18.6098 41.219 18.6098H41.0334H40.4763C40.2906 18.6098 40.1049 18.6098 39.9192 18.806C39.9192 19.0023 39.9192 19.1986 39.7335 19.1986C38.9907 18.806 38.6194 18.6098 38.4337 18.6098V17.4322H36.5768V18.4135C35.4626 18.4135 34.5341 18.806 33.9771 19.1986C33.2343 19.5911 32.8629 20.1799 32.6772 20.7687C32.4915 21.1613 32.3058 21.9463 32.3058 22.7314C32.3058 25.0866 33.7914 27.0493 36.5768 28.8157V33.9187C36.3911 33.9187 36.3911 33.7224 36.2054 33.7224C34.3485 28.8157 31.1917 25.0866 27.1065 23.3202C27.4779 22.7314 27.8492 22.1426 27.8492 21.7501C27.8492 20.5725 27.1065 19.7874 25.8066 19.0023C25.9923 19.0023 26.178 19.0023 26.3637 18.806C29.3348 17.2359 31.3774 14.8807 30.8203 13.5068L30.6346 13.3105C31.006 13.3105 31.1917 13.1143 31.3774 13.1143C30.8203 12.5255 30.6346 12.1329 30.6346 11.5441C30.6346 10.5628 31.3774 9.58144 32.6772 8.79637C32.4915 8.79637 32.3058 8.79637 32.1202 8.6001C29.1491 7.02995 27.1065 4.67474 27.6636 3.30086C28.4063 1.73071 31.3774 1.92698 34.5341 3.49713C35.6483 4.08593 36.5768 4.67474 37.3195 5.45981C38.0623 4.67474 39.1764 4.08593 40.2906 3.49713C43.2617 1.92698 46.4184 1.73071 46.9755 3.30086C47.7182 4.67474 45.6756 7.02995 42.5189 8.6001C42.5189 8.79637 42.3332 8.79637 42.1475 8.79637C43.2617 9.58144 44.0044 10.5628 44.0044 11.5441C44.0044 12.1329 43.8187 12.5255 43.4473 13.1143ZM36.5768 23.5165V19.5911C36.0197 19.5911 35.6483 19.7874 35.4626 20.1799C35.0912 20.3762 34.9055 20.7687 34.9055 21.1613C34.9055 21.9463 35.4626 22.7314 36.5768 23.5165ZM38.4337 29.9933V34.3112C39.3621 34.115 39.9192 33.5261 39.9192 32.5448C39.9192 31.5635 39.3621 30.7784 38.4337 29.9933Z" fill="white"/>
<path fill-rule="evenodd" clip-rule="evenodd" d="M25.42 23.5161C31.7335 26.2639 36.0044 33.5258 36.0044 42.9467C36.0044 55.5078 28.5768 56.0966 19.4779 56.0966C10.1933 56.0966 2.76562 55.5078 2.76562 42.9467C2.76562 33.5258 7.22222 26.2639 13.35 23.5161C12.9787 22.9273 12.793 22.5348 12.793 21.946C12.793 20.9646 13.5357 19.9833 14.6499 19.1982C14.4642 19.1982 14.4642 19.1982 14.2785 19.002C11.1217 17.4318 9.07914 15.0766 9.82191 13.7027C10.379 12.1326 13.5357 12.3288 16.5068 13.899C17.621 14.4878 18.7351 15.0766 19.4779 15.8617C20.2206 15.0766 21.1491 14.4878 22.2632 13.899C25.42 12.3288 28.3911 12.1326 29.1338 13.7027C29.6909 15.0766 27.834 17.4318 24.6772 19.002C24.4915 19.1982 24.3059 19.1982 24.1202 19.1982C25.42 19.9833 26.1628 20.9646 26.1628 21.946C26.1628 22.5348 25.9771 22.9273 25.42 23.5161ZM18.5494 27.834H20.4063V29.0116C20.592 29.0116 21.1491 29.2079 21.7062 29.6004C21.8919 29.6004 21.8919 29.4042 22.0776 29.2079C22.0776 29.0116 22.2632 29.0116 22.4489 29.0116H23.006H23.1917C23.3774 29.0116 23.3774 29.0116 23.3774 29.2079C23.3774 29.2079 23.3774 29.4042 23.3774 29.6004L23.9345 32.3482C23.9345 32.3482 23.9345 32.3482 23.9345 32.5445C24.1202 33.1333 24.1202 33.3295 24.1202 33.5258C24.1202 33.7221 23.9345 33.7221 23.5631 33.7221C23.1917 33.7221 23.006 33.7221 22.8203 33.7221C22.8203 33.7221 22.6346 33.5258 22.4489 33.1333C21.8919 31.7594 21.1491 30.9743 20.4063 30.5818V34.8997C22.2632 36.0773 23.3774 37.2549 23.9345 38.2362C24.4915 39.0213 24.6772 40.1989 24.6772 41.3765C24.6772 42.3579 24.4915 43.3392 24.1202 43.928C23.7488 44.7131 23.1917 45.1056 22.6346 45.4981C22.0776 45.6944 21.3348 45.8907 20.4063 46.087V47.8534H18.5494V45.8907C17.9923 45.6944 17.621 45.4981 17.4353 45.3019C17.2496 45.1056 17.2496 45.1056 17.0639 45.1056C16.8782 45.1056 16.8782 45.3019 16.6925 45.4981C16.5068 45.6944 16.5068 45.8907 16.5068 45.8907C16.3211 45.8907 16.1354 46.087 15.5783 46.087C15.5783 46.087 15.3927 45.8907 15.3927 45.4981L14.6499 41.5728C14.6499 41.3765 14.6499 41.1802 14.6499 41.1802C14.6499 40.7877 14.8356 40.7877 15.3927 40.7877C15.764 40.7877 15.9497 40.7877 16.1354 40.984C16.1354 40.984 16.3211 41.3765 16.6925 41.7691C17.4353 43.1429 17.9923 43.928 18.5494 44.3205V39.2176C15.764 37.4512 14.2785 35.4885 14.2785 33.1333C14.2785 32.3482 14.4642 31.5631 14.6499 31.1706C14.8356 30.5818 15.3927 29.993 15.9497 29.6004C16.5068 29.2079 17.4353 28.8154 18.5494 28.8154V27.834ZM18.5494 33.9183V29.993C18.178 29.993 17.8066 30.1892 17.4353 30.5818C17.2496 30.778 17.0639 31.1706 17.0639 31.5631C17.0639 32.3482 17.621 33.1333 18.5494 33.9183ZM20.4063 40.3952V44.7131C21.5205 44.5168 22.0776 43.928 22.0776 42.9467C22.0776 41.9653 21.5205 41.1802 20.4063 40.3952Z" fill="#2B2A29"/>
<path fill-rule="evenodd" clip-rule="evenodd" d="M23.9239 24.1055C30.2374 26.8532 34.5083 34.1151 34.5083 43.536C34.5083 55.9009 27.0807 56.686 17.9818 56.686C8.6972 56.686 1.26953 55.9009 1.26953 43.536C1.26953 34.1151 5.72613 26.8532 11.854 24.1055C11.4826 23.5167 11.2969 22.9279 11.2969 22.5353C11.2969 21.3577 12.0396 20.5726 13.1538 19.7876C12.9681 19.7876 12.7824 19.7876 12.7824 19.5913C9.62566 18.0212 7.58305 15.6659 8.32581 14.2921C8.88289 12.7219 12.0396 12.9182 15.0107 14.4883C16.1249 15.0771 17.239 15.6659 17.9818 16.451C18.7245 15.6659 19.653 15.0771 20.7672 14.4883C23.9239 12.9182 26.895 12.7219 27.6377 14.2921C28.1948 15.6659 26.1522 18.0212 23.1811 19.5913C22.9955 19.7876 22.8098 19.7876 22.6241 19.7876C23.9239 20.5726 24.6667 21.3577 24.6667 22.5353C24.6667 22.9279 24.481 23.5167 23.9239 24.1055ZM17.0533 28.4234H18.9102V29.601C19.0959 29.601 19.4673 29.7973 20.2101 30.1898C20.3958 30.1898 20.3958 29.9935 20.5815 29.7973C20.5815 29.601 20.7672 29.601 20.9528 29.601H21.5099L21.6956 29.4047C21.6956 29.601 21.8813 29.601 21.8813 29.7973C21.8813 29.7973 21.8813 29.9935 21.8813 30.1898L22.4384 32.9375C22.4384 32.9375 22.4384 32.9375 22.4384 33.1338C22.6241 33.7226 22.6241 33.9189 22.6241 34.1151C22.6241 34.3114 22.4384 34.3114 22.067 34.3114C21.6956 34.3114 21.3242 34.3114 21.3242 34.3114C21.3242 34.3114 21.1385 34.1151 20.9528 33.7226C20.3958 32.3487 19.653 31.5637 18.9102 31.1711V35.489C20.5815 36.6666 21.8813 37.8442 22.4384 38.6293C22.9955 39.6107 23.1811 40.7883 23.1811 41.9659C23.1811 42.9472 22.9955 43.9286 22.6241 44.5174C22.2527 45.1062 21.6956 45.695 21.1385 46.0875C20.5815 46.2838 19.8387 46.48 18.9102 46.6763V48.4427H17.0533V46.48C16.4962 46.0875 16.1249 45.8912 15.9392 45.8912C15.7535 45.695 15.5678 45.695 15.5678 45.695C15.3821 45.695 15.1964 45.8912 15.1964 46.0875C15.0107 46.2838 15.0107 46.48 14.825 46.48C14.825 46.48 14.6393 46.6763 14.0823 46.6763C14.0823 46.6763 13.8966 46.48 13.8966 46.0875L13.1538 42.1621C13.1538 41.9659 13.1538 41.7696 13.1538 41.7696C13.1538 41.3771 13.3395 41.3771 13.8966 41.3771C14.2679 41.3771 14.4536 41.3771 14.6393 41.3771C14.6393 41.5733 14.825 41.9659 15.1964 42.3584C15.9392 43.7323 16.4962 44.5174 17.0533 44.9099V39.8069C14.2679 38.0405 12.7824 36.0778 12.7824 33.7226C12.7824 32.9375 12.9681 32.1525 13.1538 31.5637C13.3395 31.1711 13.8966 30.5823 14.4536 30.1898C15.0107 29.7973 15.9392 29.4047 17.0533 29.4047V28.4234ZM17.0533 34.5077V30.5823C16.6819 30.5823 16.1249 30.7786 15.9392 31.1711C15.5678 31.3674 15.5678 31.7599 15.5678 32.1525C15.5678 32.9375 15.9392 33.7226 17.0533 34.5077ZM18.9102 40.9845V45.3024C20.0244 45.1062 20.5815 44.5174 20.5815 43.536C20.5815 42.5547 20.0244 41.7696 18.9102 40.9845Z" fill="#D30131"/>
<path fill-rule="evenodd" clip-rule="evenodd" d="M22.6544 24.106C28.7822 26.8537 33.2388 34.1156 33.2388 43.5365C33.2388 55.9014 25.8111 56.6865 16.5266 56.6865C7.42767 56.6865 0 55.9014 0 43.5365C0 34.1156 4.27091 26.8537 10.5844 24.106C10.0273 23.5172 9.84166 22.9284 9.84166 22.5358C9.84166 21.3582 10.5844 20.5731 11.8843 19.7881C11.6986 19.7881 11.5129 19.7881 11.3272 19.5918C8.17043 18.0217 6.31352 15.6664 6.87059 14.2926C7.61336 12.7224 10.5844 12.9187 13.7412 14.4888C14.8553 15.0776 15.7838 15.6664 16.5266 16.4515C17.2693 15.6664 18.3835 15.0776 19.4976 14.4888C22.4687 12.9187 25.6254 12.7224 26.1825 14.2926C26.9253 15.6664 24.8827 18.0217 21.7259 19.5918C21.5402 19.7881 21.5402 19.7881 21.3545 19.7881C22.4687 20.5731 23.2115 21.3582 23.2115 22.5358C23.2115 22.9284 23.0258 23.5172 22.6544 24.106ZM15.7838 28.4239H17.455V29.6015C17.8264 29.6015 18.1978 29.7977 18.9405 30.1903C19.1262 30.1903 19.1262 29.994 19.1262 29.7977C19.3119 29.6015 19.4976 29.6015 19.6833 29.6015H20.0547L20.2404 29.4052C20.4261 29.6015 20.4261 29.6015 20.6118 29.7977C20.6118 29.7977 20.6118 29.994 20.6118 30.1903L20.9832 32.938C21.1688 32.938 21.1688 32.938 21.1688 33.1343C21.1688 33.7231 21.3545 33.9194 21.3545 34.1156C21.3545 34.3119 21.1688 34.3119 20.6118 34.3119C20.2404 34.3119 20.0547 34.3119 20.0547 34.3119C19.869 34.3119 19.869 34.1156 19.6833 33.7231C18.9405 32.3492 18.3835 31.5642 17.455 31.1716V35.4895C19.3119 36.6671 20.4261 37.8447 20.9832 38.6298C21.5402 39.6111 21.9116 40.7888 21.9116 41.9664C21.9116 42.9477 21.7259 43.929 21.3545 44.5178C20.7975 45.1066 20.4261 45.6955 19.869 46.088C19.3119 46.2843 18.5692 46.4805 17.6407 46.6768V48.4432H15.7838V46.4805C15.2267 46.088 14.8553 45.8917 14.6696 45.8917C14.4839 45.6955 14.2983 45.6955 14.2983 45.6955C14.1126 45.6955 13.9269 45.8917 13.7412 46.088C13.7412 46.2843 13.5555 46.4805 13.5555 46.4805C13.5555 46.4805 13.1841 46.6768 12.8127 46.6768C12.627 46.6768 12.627 46.4805 12.4413 46.088L11.8843 42.1626C11.8843 41.9664 11.8843 41.7701 11.8843 41.7701C11.8843 41.3776 12.07 41.3776 12.4413 41.3776C12.8127 41.3776 13.1841 41.3776 13.1841 41.3776C13.3698 41.5738 13.5555 41.9664 13.7412 42.3589C14.4839 43.7328 15.2267 44.5178 15.7838 44.9104V39.8074C12.8127 38.041 11.5129 36.0783 11.5129 33.7231C11.5129 32.938 11.5129 32.153 11.8843 31.5642C12.07 31.1716 12.4413 30.5828 12.9984 30.1903C13.7412 29.7977 14.4839 29.4052 15.7838 29.4052V28.4239ZM15.7838 34.5082V30.5828C15.2267 30.5828 14.8553 30.7791 14.6696 31.1716C14.2983 31.3679 14.1126 31.7604 14.1126 32.153C14.1126 32.938 14.6696 33.7231 15.7838 34.5082ZM17.6407 40.985V45.3029C18.5692 45.1066 19.1262 44.5178 19.1262 43.5365C19.1262 42.5552 18.5692 41.7701 17.6407 40.985Z" fill="white"/>
</svg>
