<svg width="147" height="180" viewBox="0 0 147 180" fill="none" xmlns="http://www.w3.org/2000/svg">
<path fill-rule="evenodd" clip-rule="evenodd" d="M1.55063 137.996C0.620253 136.791 0 135.284 0 133.778V0H147V133.778C147 135.284 146.38 136.791 145.449 137.996L83.424 177.466C77.8418 181.082 68.538 180.781 62.6456 176.864L1.55063 137.996Z" fill="#2B2A29"/>
<path fill-rule="evenodd" clip-rule="evenodd" d="M6.11686 135.284C5.20422 134.38 4.90001 132.874 4.90001 131.367V4.88477H142.1V131.367C142.1 132.874 141.492 134.38 140.579 135.284L82.4743 173.248C77.6069 176.261 68.7847 175.96 63.3089 172.646L6.11686 135.284Z" fill="url(#paint0_radial)"/>
<path fill-rule="evenodd" clip-rule="evenodd" d="M11.0133 132.034C10.1033 130.829 9.8 129.624 9.8 128.117V9.76953H137.2V128.117C137.2 129.624 136.897 130.829 135.987 132.034L81.9933 168.491C77.4433 171.504 69.2533 171.203 64.0967 167.889L11.0133 132.034Z" stroke="#2B2A29" stroke-miterlimit="7.6613" stroke-linejoin="round" stroke-dasharray="3 3"/>
<path fill-rule="evenodd" clip-rule="evenodd" d="M110.785 46.2131V91.107C110.785 95.0239 107.657 98.6395 103.962 98.6395H45.1153C41.4196 98.6395 38.5768 95.0239 38.5768 91.107V46.2131C38.5768 42.2962 41.4196 39.2832 45.1153 39.2832H51.6538V43.5014C51.6538 46.2131 53.6437 48.6235 56.4866 48.6235C59.0451 48.6235 61.0351 46.2131 61.0351 43.5014V39.2832H88.042V43.5014C88.042 46.2131 90.3162 48.6235 92.8748 48.6235C95.4333 48.6235 97.4233 46.2131 97.4233 43.5014V39.2832H103.962C107.657 39.2832 110.785 42.2962 110.785 46.2131ZM105.099 59.7717H44.2624V92.0109H105.099V59.7717Z" fill="#2B2A29"/>
<path fill-rule="evenodd" clip-rule="evenodd" d="M56.7898 46.8156H55.9369C54.2312 46.8156 52.5255 45.309 52.5255 43.5012V35.3661C52.5255 33.257 54.2312 31.7505 55.9369 31.7505H56.7898C58.4954 31.7505 59.9169 33.257 59.9169 35.3661V43.5012C59.9169 45.309 58.4954 46.8156 56.7898 46.8156Z" fill="#2B2A29"/>
<path fill-rule="evenodd" clip-rule="evenodd" d="M93.1538 46.8156H92.3009C90.5952 46.8156 89.1738 45.309 89.1738 43.5012V35.3661C89.1738 33.257 90.5952 31.7505 92.3009 31.7505H93.1538C95.1437 31.7505 96.5651 33.257 96.5651 35.3661V43.5012C96.5651 45.309 95.1437 46.8156 93.1538 46.8156Z" fill="#2B2A29"/>
<path fill-rule="evenodd" clip-rule="evenodd" d="M57.9208 87.1899V84.1769L60.7636 81.4652C65.3121 76.9457 67.5864 74.5353 67.5864 71.8235C67.5864 70.0157 66.7335 68.5092 64.175 68.5092C62.185 68.5092 60.7636 69.4131 59.6265 70.317L58.205 66.4001C59.6265 65.1949 62.185 64.291 65.0278 64.291C70.1449 64.291 72.7035 67.304 72.7035 71.2209C72.7035 75.1379 70.1449 78.1509 67.0178 81.1639L65.0278 82.9717H72.9877V87.1899H57.9208Z" fill="#2B2A29"/>
<path fill-rule="evenodd" clip-rule="evenodd" d="M90.5788 68.8107H82.0504L81.7661 72.4264C82.0504 72.4264 82.6189 72.4264 83.1875 72.4264C85.1775 72.4264 87.1675 72.7277 88.8731 73.9329C90.2946 75.1381 91.4317 76.9459 91.4317 79.6576C91.4317 83.8758 88.0203 87.7927 82.0504 87.7927C79.4918 87.7927 77.2176 87.1901 76.0804 86.2862L76.9333 82.3693C78.0704 82.9719 80.0604 83.5745 81.7661 83.5745C84.0403 83.5745 86.3146 82.3693 86.3146 79.9589C86.3146 77.8498 84.3246 76.3433 80.0604 76.3433C78.9233 76.3433 78.0704 76.3433 77.2176 76.3433L78.639 64.5925H90.5788V68.8107Z" fill="#2B2A29"/>
<path fill-rule="evenodd" clip-rule="evenodd" d="M108.482 47.719V92.9141C108.482 96.8311 105.639 100.447 101.943 100.447H43.0965C39.4009 100.447 36.2737 96.8311 36.2737 92.9141V47.719C36.2737 43.802 39.4009 41.0903 43.0965 41.0903H49.635V45.3085C49.635 48.0203 51.625 50.1294 54.1836 50.1294C56.7421 50.1294 59.0164 48.0203 59.0164 45.3085V41.0903H86.0232V45.3085C86.0232 48.0203 88.0132 50.1294 90.5717 50.1294C93.4146 50.1294 95.4045 48.0203 95.4045 45.3085V41.0903H101.943C105.639 41.0903 108.482 43.802 108.482 47.719ZM102.796 61.5788H41.9594V93.8181H102.796V61.5788Z" fill="#8A0447"/>
<path fill-rule="evenodd" clip-rule="evenodd" d="M54.4658 48.6227H53.6129C51.9072 48.6227 50.4858 47.1162 50.4858 45.3084V36.8719C50.4858 35.0641 51.9072 33.5576 53.6129 33.5576H54.4658C56.4558 33.5576 57.8772 35.0641 57.8772 36.8719V45.3084C57.8772 47.1162 56.4558 48.6227 54.4658 48.6227Z" fill="#8A0447"/>
<path fill-rule="evenodd" clip-rule="evenodd" d="M91.1352 48.6227H90.2823C88.2924 48.6227 86.8709 47.1162 86.8709 45.3084V36.8719C86.8709 35.0641 88.2924 33.5576 90.2823 33.5576H91.1352C92.8409 33.5576 94.2623 35.0641 94.2623 36.8719V45.3084C94.2623 47.1162 92.8409 48.6227 91.1352 48.6227Z" fill="#8A0447"/>
<path fill-rule="evenodd" clip-rule="evenodd" d="M55.6179 88.9971V85.6828L58.4607 83.2724C63.0093 78.7528 65.2835 76.0411 65.5678 73.3294C65.5678 71.5216 64.4307 70.0151 61.8721 70.0151C60.1664 70.0151 58.4607 71.2203 57.3236 72.1242L55.9022 68.2073C57.6079 67.0021 60.1664 65.7969 63.0093 65.7969C67.8421 65.7969 70.4006 68.8099 70.4006 73.0281C70.4006 76.945 67.8421 79.958 64.7149 82.6697L62.725 84.4776V84.7789H70.9692V88.9971H55.6179Z" fill="#8A0447"/>
<path fill-rule="evenodd" clip-rule="evenodd" d="M88.3207 70.6174H80.0765L79.5079 74.233C80.0765 73.9317 80.3607 73.9317 80.9293 73.9317C82.9193 73.9317 85.1935 74.5343 86.615 75.7395C88.3207 76.9447 89.1735 78.7525 89.1735 81.4642C89.1735 85.6824 85.7621 89.2981 80.0765 89.2981C77.5179 89.2981 75.2437 88.6955 74.1065 88.0929L74.9594 84.1759C75.8122 84.4772 77.8022 85.0798 79.7922 85.0798C81.7822 85.0798 84.0564 84.1759 84.0564 81.7655C84.0564 79.3551 82.3507 77.8486 78.0865 77.8486C76.9493 77.8486 76.0965 78.1499 74.9594 78.1499L76.3808 66.3992H88.3207V70.6174Z" fill="#8A0447"/>
<path fill-rule="evenodd" clip-rule="evenodd" d="M106.224 49.2265V94.4217C106.224 98.3386 103.381 101.653 99.6854 101.653H40.8388C37.1432 101.653 34.3003 98.3386 34.3003 94.4217V49.2265C34.3003 45.3096 37.1432 42.5979 40.8388 42.5979H47.3773V46.5148C47.3773 49.2265 49.3673 51.6369 51.9259 51.6369C54.7687 51.6369 56.7587 49.2265 56.7587 46.5148V42.5979H83.7655V46.5148C83.7655 49.2265 85.7555 51.6369 88.5983 51.6369C91.1569 51.6369 93.1469 49.2265 93.1469 46.5148V42.5979H99.6854C103.381 42.5979 106.224 45.3096 106.224 49.2265ZM100.823 63.0864H39.7017V95.0243H100.823V63.0864Z" fill="white"/>
<path fill-rule="evenodd" clip-rule="evenodd" d="M52.5132 50.1298H51.6603C49.6703 50.1298 48.2489 48.6233 48.2489 46.5142V38.379C48.2489 36.5712 49.6703 34.7634 51.6603 34.7634H52.5132C54.2189 34.7634 55.6403 36.5712 55.6403 38.379V46.5142C55.6403 48.6233 54.2189 50.1298 52.5132 50.1298Z" fill="white"/>
<path fill-rule="evenodd" clip-rule="evenodd" d="M88.8772 50.1298H88.0243C86.3187 50.1298 84.8972 48.6233 84.8972 46.5142V38.379C84.8972 36.5712 86.3187 34.7634 88.0243 34.7634H88.8772C90.5829 34.7634 92.2886 36.5712 92.2886 38.379V46.5142C92.2886 48.6233 90.5829 50.1298 88.8772 50.1298Z" fill="white"/>
<path fill-rule="evenodd" clip-rule="evenodd" d="M53.6442 90.5039V87.1896L56.2027 84.4779C61.0355 79.9584 63.3098 77.548 63.3098 74.8362C63.3098 73.0284 62.1726 71.5219 59.8984 71.5219C57.9084 71.5219 56.2027 72.4258 55.3499 73.3297L53.9284 69.7141C55.3499 68.2076 57.9084 67.3037 60.7512 67.3037C65.584 67.3037 68.4269 70.3167 68.4269 74.5349C68.4269 78.1506 65.8683 81.1636 62.7412 84.1766L60.7512 85.9844H68.7111V90.5039H53.6442Z" fill="white"/>
<path fill-rule="evenodd" clip-rule="evenodd" d="M86.018 72.125H77.7738L77.4895 75.4393C77.7738 75.4393 78.3423 75.4393 78.6266 75.4393C80.9009 75.4393 82.8909 76.0419 84.3123 76.9458C86.018 78.151 86.8708 80.2601 86.8708 82.6705C86.8708 86.8888 83.4594 90.8057 77.7738 90.8057C75.2152 90.8057 72.941 90.2031 71.8038 89.6005L72.6567 85.3822C73.7938 85.9848 75.4995 86.5875 77.4895 86.5875C79.7637 86.5875 81.7537 85.6835 81.7537 83.2731C81.7537 80.8627 80.048 79.3562 75.7838 79.3562C74.6467 79.3562 73.7938 79.3562 72.941 79.6575L74.3624 67.6055H86.018V72.125Z" fill="white"/>
<defs>
<radialGradient id="paint0_radial" cx="0" cy="0" r="1" gradientUnits="userSpaceOnUse" gradientTransform="translate(70.7564 138.512) scale(68.6005 87.6666)">
<stop stop-color="#434242"/>
<stop offset="0.670588" stop-color="#3A3939"/>
<stop offset="1" stop-color="#3A3939"/>
</radialGradient>
</defs>
</svg>
