<svg width="58" height="57" viewBox="0 0 58 57" fill="none" xmlns="http://www.w3.org/2000/svg">
<path fill-rule="evenodd" clip-rule="evenodd" d="M54.2799 14.5262V44.4555C54.2799 47.0667 52.1942 49.4771 49.7292 49.4771H10.4802C8.01523 49.4771 6.11914 47.0667 6.11914 44.4555V14.5262C6.11914 11.9149 8.01523 9.90625 10.4802 9.90625H14.8412V12.7184C14.8412 14.5262 16.1684 16.1331 18.0645 16.1331C19.771 16.1331 21.0983 14.5262 21.0983 12.7184V9.90625H39.1111V12.7184C39.1111 14.5262 40.628 16.1331 42.3345 16.1331C44.041 16.1331 45.3682 14.5262 45.3682 12.7184V9.90625H49.7292C52.1942 9.90625 54.2799 11.9149 54.2799 14.5262ZM50.4877 23.5652H9.91132V45.0581H50.4877V23.5652Z" fill="#2B2A29"/>
<path fill-rule="evenodd" clip-rule="evenodd" d="M18.2699 14.9291H17.7011C16.5634 14.9291 15.4258 13.9248 15.4258 12.7196V7.29615C15.4258 5.89008 16.5634 4.88574 17.7011 4.88574H18.2699C19.4076 4.88574 20.3556 5.89008 20.3556 7.29615V12.7196C20.3556 13.9248 19.4076 14.9291 18.2699 14.9291Z" fill="#2B2A29"/>
<path fill-rule="evenodd" clip-rule="evenodd" d="M42.5217 14.9291H41.9529C40.8152 14.9291 39.8672 13.9248 39.8672 12.7196V7.29615C39.8672 5.89008 40.8152 4.88574 41.9529 4.88574H42.5217C43.849 4.88574 44.797 5.89008 44.797 7.29615V12.7196C44.797 13.9248 43.849 14.9291 42.5217 14.9291Z" fill="#2B2A29"/>
<path fill-rule="evenodd" clip-rule="evenodd" d="M19.0195 41.845V39.8364L20.9156 38.0285C23.9494 35.0155 25.4662 33.4086 25.4662 31.6008C25.4662 30.3956 24.8974 29.3912 23.1909 29.3912C21.8637 29.3912 20.9156 29.9938 20.1572 30.5965L19.2091 27.9852C20.1572 27.1817 21.8637 26.5791 23.7598 26.5791C27.1727 26.5791 28.8792 28.5878 28.8792 31.1991C28.8792 33.8103 27.1727 35.819 25.087 37.8277L23.7598 39.0329H29.0688V41.845H19.0195Z" fill="#2B2A29"/>
<path fill-rule="evenodd" clip-rule="evenodd" d="M40.8068 29.5924H35.1185L34.9289 32.0028C35.1185 32.0028 35.4977 32.0028 35.8769 32.0028C37.2042 32.0028 38.5315 32.2037 39.6691 33.0072C40.6172 33.8106 41.3756 35.0158 41.3756 36.8237C41.3756 39.6358 39.1003 42.2471 35.1185 42.2471C33.412 42.2471 31.8952 41.8453 31.1367 41.2427L31.7055 38.6315C32.464 39.0332 33.7912 39.4349 34.9289 39.4349C36.4458 39.4349 37.9626 38.6315 37.9626 37.0245C37.9626 35.6184 36.6354 34.6141 33.7912 34.6141C33.0328 34.6141 32.464 34.6141 31.8952 34.6141L32.8432 26.7803H40.8068V29.5924Z" fill="#2B2A29"/>
<path fill-rule="evenodd" clip-rule="evenodd" d="M52.7428 15.5314V45.6615C52.7428 48.2728 50.8467 50.6832 48.3817 50.6832H9.13265C6.66773 50.6832 4.58203 48.2728 4.58203 45.6615V15.5314C4.58203 12.9201 6.66773 11.1123 9.13265 11.1123H13.4937V13.9244C13.4937 15.7323 14.8209 17.1383 16.5274 17.1383C18.2339 17.1383 19.7508 15.7323 19.7508 13.9244V11.1123H37.7636V13.9244C37.7636 15.7323 39.0909 17.1383 40.7974 17.1383C42.6935 17.1383 44.0207 15.7323 44.0207 13.9244V11.1123H48.3817C50.8467 11.1123 52.7428 12.9201 52.7428 15.5314ZM48.9506 24.7713H8.37421V46.2641H48.9506V24.7713Z" fill="#D30131"/>
<path fill-rule="evenodd" clip-rule="evenodd" d="M16.7131 16.1347H16.1443C15.0066 16.1347 14.0586 15.1303 14.0586 13.9251V8.30085C14.0586 7.09565 15.0066 6.09131 16.1443 6.09131H16.7131C18.0404 6.09131 18.9884 7.09565 18.9884 8.30085V13.9251C18.9884 15.1303 18.0404 16.1347 16.7131 16.1347Z" fill="#D30131"/>
<path fill-rule="evenodd" clip-rule="evenodd" d="M41.1703 16.1347H40.6015C39.2742 16.1347 38.3262 15.1303 38.3262 13.9251V8.30085C38.3262 7.09565 39.2742 6.09131 40.6015 6.09131H41.1703C42.308 6.09131 43.256 7.09565 43.256 8.30085V13.9251C43.256 15.1303 42.308 16.1347 41.1703 16.1347Z" fill="#D30131"/>
<path fill-rule="evenodd" clip-rule="evenodd" d="M17.4805 43.0508V40.8412L19.3766 39.2343C22.4103 36.2213 23.9272 34.4135 24.1168 32.6057C24.1168 31.4005 23.3584 30.3961 21.6519 30.3961C20.5142 30.3961 19.3766 31.1996 18.6181 31.8022L17.6701 29.1909C18.8077 28.3875 20.5142 27.584 22.4103 27.584C25.6337 27.584 27.3401 29.5927 27.3401 32.4048C27.3401 35.0161 25.6337 37.0248 23.548 38.8326L22.2207 40.0378V40.2386H27.7194V43.0508H17.4805Z" fill="#D30131"/>
<path fill-rule="evenodd" clip-rule="evenodd" d="M39.293 30.798H33.7943L33.4151 33.2084C33.7943 33.0075 33.9839 33.0075 34.3631 33.0075C35.6904 33.0075 37.2073 33.4093 38.1553 34.2127C39.293 35.0162 39.8618 36.2214 39.8618 38.0292C39.8618 40.8414 37.5865 43.2518 33.7943 43.2518C32.0878 43.2518 30.5709 42.85 29.8125 42.4483L30.3813 39.837C30.9502 40.0379 32.2774 40.4396 33.6047 40.4396C34.9319 40.4396 36.4488 39.837 36.4488 38.2301C36.4488 36.6231 35.3112 35.6188 32.467 35.6188C31.7086 35.6188 31.1398 35.8197 30.3813 35.8197L31.3294 27.9858H39.293V30.798Z" fill="#D30131"/>
<path fill-rule="evenodd" clip-rule="evenodd" d="M51.2387 16.5343V46.6644C51.2387 49.2757 49.3426 51.4853 46.8777 51.4853H7.62859C5.16367 51.4853 3.26758 49.2757 3.26758 46.6644V16.5343C3.26758 13.923 5.16367 12.1152 7.62859 12.1152H11.9896V14.7265C11.9896 16.5343 13.3169 18.1413 15.0233 18.1413C16.9194 18.1413 18.2467 16.5343 18.2467 14.7265V12.1152H36.2596V14.7265C36.2596 16.5343 37.5868 18.1413 39.4829 18.1413C41.1894 18.1413 42.5167 16.5343 42.5167 14.7265V12.1152H46.8777C49.3426 12.1152 51.2387 13.923 51.2387 16.5343ZM47.6361 25.7742H6.87015V47.0662H47.6361V25.7742Z" fill="white"/>
<path fill-rule="evenodd" clip-rule="evenodd" d="M15.4164 17.1378H14.8476C13.5203 17.1378 12.5723 16.1335 12.5723 14.7274V9.30396C12.5723 8.09876 13.5203 6.89355 14.8476 6.89355H15.4164C16.5541 6.89355 17.5021 8.09876 17.5021 9.30396V14.7274C17.5021 16.1335 16.5541 17.1378 15.4164 17.1378Z" fill="white"/>
<path fill-rule="evenodd" clip-rule="evenodd" d="M39.6702 17.1378H39.1013C37.9637 17.1378 37.0156 16.1335 37.0156 14.7274V9.30396C37.0156 8.09876 37.9637 6.89355 39.1013 6.89355H39.6702C40.8078 6.89355 41.9455 8.09876 41.9455 9.30396V14.7274C41.9455 16.1335 40.8078 17.1378 39.6702 17.1378Z" fill="white"/>
<path fill-rule="evenodd" clip-rule="evenodd" d="M16.168 44.0547V41.8451L17.8745 40.0373C21.0978 37.0243 22.6147 35.4174 22.6147 33.6096C22.6147 32.4044 21.8562 31.4 20.3394 31.4C19.0121 31.4 17.8745 32.0026 17.3056 32.6052L16.3576 30.1948C17.3056 29.1905 19.0121 28.5879 20.9082 28.5879C24.1316 28.5879 26.0276 30.5966 26.0276 33.4087C26.0276 35.8191 24.3212 37.8278 22.2355 39.8365L20.9082 41.0417H26.2173V44.0547H16.168Z" fill="white"/>
<path fill-rule="evenodd" clip-rule="evenodd" d="M37.7656 31.8011H32.2669L32.0773 34.0106C32.2669 34.0106 32.6462 34.0106 32.8358 34.0106C34.3526 34.0106 35.6799 34.4124 36.628 35.015C37.7656 35.8184 38.3344 37.2245 38.3344 38.8315C38.3344 41.6436 36.0591 44.2549 32.2669 44.2549C30.5605 44.2549 29.0436 43.8532 28.2852 43.4514L28.854 40.6393C29.6124 41.041 30.7501 41.4427 32.0773 41.4427C33.5942 41.4427 34.9215 40.8401 34.9215 39.2332C34.9215 37.6263 33.7838 36.6219 30.9397 36.6219C30.1812 36.6219 29.6124 36.6219 29.0436 36.8228L29.9916 28.7881H37.7656V31.8011Z" fill="white"/>
</svg>
