<svg width="58" height="57" viewBox="0 0 58 57" fill="none" xmlns="http://www.w3.org/2000/svg">
<path d="M28.7443 4.88525H33.7709V7.61267C34.3509 7.78313 35.7042 8.29452 37.6375 8.97637C37.8308 8.80591 38.2175 8.63545 38.4108 8.29452C38.6041 7.78313 38.9908 7.4422 39.5708 7.4422H40.9241H41.5041C41.6974 7.4422 41.8907 7.78313 42.0841 8.12406C42.0841 8.12406 42.0841 8.46498 42.2774 8.97637L43.6307 15.2835C43.6307 15.2835 43.6307 15.454 43.6307 15.7949C44.0174 17.1586 44.2107 17.8405 44.2107 18.1814C44.2107 18.5223 43.6307 18.8632 42.4707 18.8632C41.5041 18.8632 40.7307 18.6928 40.5374 18.6928C40.3441 18.6928 40.1508 18.1814 39.5708 17.3291C37.8308 14.2607 35.8975 12.2152 33.7709 11.3629V21.4202C38.6041 24.3181 41.8907 26.7046 43.4374 28.9206C44.984 30.9661 45.7573 33.5231 45.7573 36.2505C45.7573 38.8075 45.1773 40.853 44.0174 42.3872C43.0507 43.9214 41.6974 44.9441 40.1508 45.7965C38.6041 46.4783 36.4775 46.9897 33.7709 47.1602V51.4217H28.7443V46.6488C27.1977 46.1374 26.0377 45.626 25.651 45.4555C25.071 45.1146 24.6844 44.9441 24.491 44.9441C24.1044 44.9441 23.7177 45.2851 23.3311 46.1374C23.1377 46.4783 22.9444 46.8192 22.7511 46.9897C22.5577 46.9897 21.7844 46.9897 20.4311 46.9897C20.2378 46.9897 19.8511 46.6488 19.6578 45.7965L17.9178 36.5914C17.9178 36.08 17.7245 35.9096 17.7245 35.7391C17.7245 35.2277 18.4978 34.8868 19.8511 34.8868C20.8178 34.8868 21.3978 35.0573 21.7844 35.2277C21.9777 35.3982 22.5577 36.2505 23.3311 37.4438C25.2644 40.5121 27.1977 42.3872 28.7443 43.069V31.1366C20.8178 27.216 16.9512 22.6134 16.9512 17.1586C16.9512 15.2835 17.1445 13.7493 17.9178 12.3856C18.4978 11.1924 19.6578 9.99915 21.3978 8.97637C22.9444 7.95359 25.4577 7.4422 28.7443 7.27174V4.88525ZM28.7443 19.0337V10.1696C27.391 10.1696 26.4243 10.5105 25.4577 11.1924C24.6844 11.8743 24.2977 12.7266 24.2977 13.5789C24.2977 15.454 25.8443 17.3291 28.7443 19.0337ZM33.7709 34.0345V44.0918C36.6708 43.5804 38.2175 42.2167 38.2175 39.8302C38.2175 37.6142 36.6708 35.7391 33.7709 34.0345Z" fill="#2B2A29"/>
<path d="M26.4181 5.22656H31.4447V8.12444C32.0247 8.12444 33.1847 8.63583 35.3113 9.48815C35.5046 9.31768 35.698 8.97676 35.8913 8.63583C36.2779 8.12444 36.6646 7.95398 37.0513 7.95398H38.5979L39.1779 7.78351C39.3712 7.95398 39.5646 8.12444 39.7579 8.63583C39.7579 8.63583 39.7579 8.80629 39.9512 9.31768L41.1112 15.6248C41.3045 15.7953 41.3045 15.9658 41.3045 16.1362C41.6912 17.4999 41.8845 18.3522 41.8845 18.6932C41.8845 19.0341 41.3045 19.2046 40.1445 19.2046C38.9846 19.2046 38.4046 19.2046 38.2112 19.2046C38.0179 19.0341 37.6313 18.6932 37.2446 17.8409C35.5046 14.602 33.5713 12.5565 31.4447 11.7042V21.932C36.2779 24.6594 39.5646 27.0459 41.1112 29.2619C42.6578 31.4779 43.4312 33.8644 43.4312 36.7623C43.4312 39.1488 42.8512 41.1943 41.6912 42.7285C40.5312 44.2627 39.1779 45.4559 37.8246 46.1378C36.2779 46.9901 34.1513 47.331 31.4447 47.5015V51.7631H26.4181V47.1605C24.8715 46.4787 23.7115 46.1378 23.3248 45.7968C22.7449 45.4559 22.3582 45.4559 22.1649 45.4559C21.7782 45.4559 21.3915 45.7968 21.0049 46.4787C20.8116 46.9901 20.6182 47.1605 20.4249 47.331C20.0382 47.5015 19.4582 47.5015 18.1049 47.5015C17.7183 47.5015 17.5249 46.9901 17.3316 46.3082L15.5916 37.1032C15.3983 36.5918 15.3983 36.2509 15.3983 36.2509C15.3983 35.569 16.1716 35.2281 17.3316 35.2281C18.4916 35.2281 19.0716 35.3986 19.4582 35.569C19.6516 35.91 20.2316 36.5918 21.0049 37.7851C22.9382 41.0239 24.6782 42.899 26.4181 43.5808V31.4779C18.4916 27.5573 14.625 22.9548 14.625 17.4999C14.625 15.6248 14.8183 14.0907 15.5916 12.8974C16.1716 11.5337 17.3316 10.5109 19.0716 9.31768C20.6182 8.2949 23.1315 7.78351 26.4181 7.78351V5.22656ZM26.4181 19.5455V10.5109C25.0648 10.5109 23.9048 10.8519 23.1315 11.7042C22.3582 12.386 21.9715 13.0679 21.9715 13.9202C21.9715 15.7953 23.5182 17.6704 26.4181 19.5455ZM31.4447 34.3758V44.4331C34.3447 44.0922 35.8913 42.7285 35.8913 40.1716C35.8913 38.126 34.3447 36.0804 31.4447 34.3758Z" fill="#D30131"/>
<path d="M25.0607 5.56689H29.8939V8.29431C30.4739 8.46477 31.8272 8.97616 33.7605 9.82848C34.1472 9.48755 34.3405 9.31709 34.5338 8.97616C34.9205 8.46477 35.3072 8.12384 35.6938 8.12384H37.2405H37.6271C38.0138 8.12384 38.2071 8.46477 38.2071 8.8057C38.2071 8.8057 38.4004 9.14663 38.4004 9.65802L39.7537 15.9652C39.7537 15.9652 39.7537 16.1356 39.9471 16.4765C40.1404 17.8403 40.3337 18.5221 40.3337 18.863C40.3337 19.3744 39.7537 19.5449 38.7871 19.5449C37.6271 19.5449 37.0471 19.3744 36.8538 19.3744C36.6605 19.3744 36.2738 18.863 35.8871 18.0107C33.9538 14.9424 32.0205 12.8968 29.8939 12.0445V22.2723C34.9205 24.9997 38.2071 27.3862 39.7537 29.6022C41.3004 31.6478 42.0737 34.2047 42.0737 36.9322C42.0737 39.4891 41.4937 41.5347 40.3337 43.0688C39.1738 44.603 37.8204 45.6258 36.2738 46.4781C34.7272 47.16 32.6005 47.6713 30.0872 47.8418V52.1034H25.0607V47.5009C23.3207 46.819 22.3541 46.3076 21.7741 46.1372C21.3874 45.7962 21.0007 45.6258 20.8074 45.6258C20.2274 45.6258 19.8408 45.9667 19.6474 46.819C19.4541 47.16 19.0674 47.5009 18.8741 47.6713C18.6808 47.6713 17.9075 47.6713 16.7475 47.6713C16.3608 47.6713 16.1675 47.3304 15.9742 46.4781L14.2342 37.2731C14.0409 36.7617 14.0409 36.5912 14.0409 36.4208C14.0409 35.9094 14.6209 35.5684 15.9742 35.5684C16.9408 35.5684 17.7141 35.7389 17.9075 35.9094C18.2941 36.0798 18.8741 36.9322 19.6474 38.1254C21.5807 41.1937 23.3207 43.0688 25.0607 43.7507V31.8183C17.1341 27.8976 13.0742 23.2951 13.0742 17.8403C13.0742 15.9652 13.4609 14.431 14.0409 13.0673C14.8142 11.874 15.9742 10.6808 17.5208 9.65802C19.2608 8.63523 21.7741 8.12384 25.0607 7.95338V5.56689ZM24.8673 19.7154V10.8513C23.7074 10.8513 22.5474 11.1922 21.7741 11.874C21.0007 12.5559 20.6141 13.4082 20.6141 14.2605C20.6141 16.1356 21.9674 18.0107 24.8673 19.7154ZM30.0872 34.7161V44.7735C32.9872 44.2621 34.5338 42.8984 34.5338 40.5119C34.5338 38.4663 32.9872 36.4208 30.0872 34.7161Z" fill="white"/>
</svg>
