<svg width="58" height="57" viewBox="0 0 58 57" fill="none" xmlns="http://www.w3.org/2000/svg">
<path fill-rule="evenodd" clip-rule="evenodd" d="M51.4104 14.694V41.2985C51.4104 43.4824 49.5341 45.6664 47.4701 45.6664H12.7586C10.507 45.6664 8.81836 43.4824 8.81836 41.2985V14.694C8.81836 12.3115 10.507 10.7231 12.7586 10.7231H16.5112V13.1056C16.5112 14.694 17.8246 16.0838 19.3256 16.0838C20.8267 16.0838 22.1401 14.694 22.1401 13.1056V10.7231H38.0886V13.1056C38.0886 14.694 39.2144 16.0838 40.9031 16.0838C42.4041 16.0838 43.5299 14.694 43.5299 13.1056V10.7231H47.4701C49.5341 10.7231 51.4104 12.3115 51.4104 14.694ZM48.033 22.6356H12.0081V41.6956H48.033V22.6356Z" fill="#2B2A29"/>
<path fill-rule="evenodd" clip-rule="evenodd" d="M19.8669 31.371H14.6133V25.6133H19.8669V31.371Z" fill="#2B2A29"/>
<path fill-rule="evenodd" clip-rule="evenodd" d="M28.5233 31.371H23.082V25.6133H28.5233V31.371Z" fill="#2B2A29"/>
<path fill-rule="evenodd" clip-rule="evenodd" d="M36.9372 31.371H31.6836V25.6133H36.9372V31.371Z" fill="#2B2A29"/>
<path fill-rule="evenodd" clip-rule="evenodd" d="M45.5917 31.371H40.1504V25.6133H45.5917V31.371Z" fill="#2B2A29"/>
<path fill-rule="evenodd" clip-rule="evenodd" d="M19.8669 39.3129H14.6133V33.5552H19.8669V39.3129Z" fill="#2B2A29"/>
<path fill-rule="evenodd" clip-rule="evenodd" d="M28.5233 39.3129H23.082V33.5552H28.5233V39.3129Z" fill="#2B2A29"/>
<path fill-rule="evenodd" clip-rule="evenodd" d="M36.9372 39.3129H31.6836V33.5552H36.9372V39.3129Z" fill="#2B2A29"/>
<path fill-rule="evenodd" clip-rule="evenodd" d="M45.5917 39.3129H40.1504V33.5552H45.5917V39.3129Z" fill="#2B2A29"/>
<path fill-rule="evenodd" clip-rule="evenodd" d="M19.5169 14.6935H19.1417C18.3911 14.6935 17.6406 13.8993 17.6406 13.1051V9.53139C17.6406 8.73723 18.3911 8.1416 19.1417 8.1416H19.5169C20.2674 8.1416 21.018 8.73723 21.018 9.53139V13.1051C21.018 13.8993 20.2674 14.6935 19.5169 14.6935Z" fill="#2B2A29"/>
<path fill-rule="evenodd" clip-rule="evenodd" d="M40.8762 14.6935H40.5009C39.7504 14.6935 39.1875 13.8993 39.1875 13.1051V9.53139C39.1875 8.73723 39.7504 8.1416 40.5009 8.1416H40.8762C41.6267 8.1416 42.3772 8.73723 42.3772 9.53139V13.1051C42.3772 13.8993 41.6267 14.6935 40.8762 14.6935Z" fill="#2B2A29"/>
<path fill-rule="evenodd" clip-rule="evenodd" d="M49.8752 16.0826V42.6871C49.8752 45.0696 48.1865 47.0551 45.935 47.0551H11.2234C8.97187 47.0551 7.2832 45.0696 7.2832 42.6871V16.0826C7.2832 13.8987 8.97187 12.1118 11.2234 12.1118H14.976V14.6929C14.976 16.2812 16.2894 17.671 17.7905 17.671C19.2915 17.671 20.6049 16.2812 20.6049 14.6929V12.1118H36.5535V14.6929C36.5535 16.2812 37.8669 17.671 39.3679 17.671C40.869 17.671 42.1824 16.2812 42.1824 14.6929V12.1118H45.935C48.1865 12.1118 49.8752 13.8987 49.8752 16.0826ZM46.4979 24.2228H10.6605V43.2828H46.4979V24.2228Z" fill="#D30131"/>
<path fill-rule="evenodd" clip-rule="evenodd" d="M18.3728 32.7608H13.1191V27.2017H18.3728V32.7608Z" fill="#D30131"/>
<path fill-rule="evenodd" clip-rule="evenodd" d="M27.0154 32.7608H21.7617V27.2017H27.0154V32.7608Z" fill="#D30131"/>
<path fill-rule="evenodd" clip-rule="evenodd" d="M35.6288 32.7608H30.1875V27.2017H35.6288V32.7608Z" fill="#D30131"/>
<path fill-rule="evenodd" clip-rule="evenodd" d="M44.0876 32.7608H38.834V27.2017H44.0876V32.7608Z" fill="#D30131"/>
<path fill-rule="evenodd" clip-rule="evenodd" d="M18.3728 40.7027H13.1191V35.1436H18.3728V40.7027Z" fill="#D30131"/>
<path fill-rule="evenodd" clip-rule="evenodd" d="M27.0154 40.7027H21.7617V35.1436H27.0154V40.7027Z" fill="#D30131"/>
<path fill-rule="evenodd" clip-rule="evenodd" d="M35.6288 40.7027H30.1875V35.1436H35.6288V40.7027Z" fill="#D30131"/>
<path fill-rule="evenodd" clip-rule="evenodd" d="M44.0876 40.7027H38.834V35.1436H44.0876V40.7027Z" fill="#D30131"/>
<path fill-rule="evenodd" clip-rule="evenodd" d="M18.0129 16.0831H17.6376C16.8871 16.0831 16.3242 15.4875 16.3242 14.6933V11.1196C16.3242 10.3254 16.8871 9.53125 17.6376 9.53125H18.0129C18.7634 9.53125 19.5139 10.3254 19.5139 11.1196V14.6933C19.5139 15.4875 18.7634 16.0831 18.0129 16.0831Z" fill="#D30131"/>
<path fill-rule="evenodd" clip-rule="evenodd" d="M39.382 16.0831H39.1944C38.2562 16.0831 37.6934 15.4875 37.6934 14.6933V11.1196C37.6934 10.3254 38.2562 9.53125 39.1944 9.53125H39.382C40.3202 9.53125 40.8831 10.3254 40.8831 11.1196V14.6933C40.8831 15.4875 40.3202 16.0831 39.382 16.0831Z" fill="#D30131"/>
<path fill-rule="evenodd" clip-rule="evenodd" d="M49.1272 17.0773V43.6818C49.1272 45.8657 47.4385 48.0497 45.1869 48.0497H10.4754C8.41146 48.0497 6.53516 45.8657 6.53516 43.6818V17.0773C6.53516 14.6948 8.41146 13.1064 10.4754 13.1064H14.4156V15.4889C14.4156 17.0773 15.5414 18.4671 17.0424 18.4671C18.7311 18.4671 19.8569 17.0773 19.8569 15.4889V13.1064H35.8054V15.4889C35.8054 17.0773 37.1188 18.4671 38.6199 18.4671C40.1209 18.4671 41.4343 17.0773 41.4343 15.4889V13.1064H45.1869C47.4385 13.1064 49.1272 14.6948 49.1272 17.0773ZM45.9374 25.2175H9.9125V44.0789H45.9374V25.2175Z" fill="white"/>
<path fill-rule="evenodd" clip-rule="evenodd" d="M17.8143 33.7543H12.373V27.9966H17.8143V33.7543Z" fill="white"/>
<path fill-rule="evenodd" clip-rule="evenodd" d="M26.2712 33.7543H21.0176V27.9966H26.2712V33.7543Z" fill="white"/>
<path fill-rule="evenodd" clip-rule="evenodd" d="M34.8846 33.7543H29.4434V27.9966H34.8846V33.7543Z" fill="white"/>
<path fill-rule="evenodd" clip-rule="evenodd" d="M43.3415 33.7543H38.0879V27.9966H43.3415V33.7543Z" fill="white"/>
<path fill-rule="evenodd" clip-rule="evenodd" d="M17.8143 41.6962H12.373V35.9385H17.8143V41.6962Z" fill="white"/>
<path fill-rule="evenodd" clip-rule="evenodd" d="M26.2712 41.6962H21.0176V35.9385H26.2712V41.6962Z" fill="white"/>
<path fill-rule="evenodd" clip-rule="evenodd" d="M34.8846 41.6962H29.4434V35.9385H34.8846V41.6962Z" fill="white"/>
<path fill-rule="evenodd" clip-rule="evenodd" d="M43.3415 41.6962H38.0879V35.9385H43.3415V41.6962Z" fill="white"/>
<path fill-rule="evenodd" clip-rule="evenodd" d="M17.2648 17.0768H16.8896C16.1391 17.0768 15.5762 16.2826 15.5762 15.4884V11.9147C15.5762 11.1205 16.1391 10.5249 16.8896 10.5249H17.2648C18.203 10.5249 18.7659 11.1205 18.7659 11.9147V15.4884C18.7659 16.2826 18.203 17.0768 17.2648 17.0768Z" fill="white"/>
<path fill-rule="evenodd" clip-rule="evenodd" d="M38.8236 17.0768H38.4483C37.6978 17.0768 36.9473 16.2826 36.9473 15.4884V11.9147C36.9473 11.1205 37.6978 10.5249 38.4483 10.5249H38.8236C39.5741 10.5249 40.137 11.1205 40.137 11.9147V15.4884C40.137 16.2826 39.5741 17.0768 38.8236 17.0768Z" fill="white"/>
</svg>
