<svg width="58" height="57" viewBox="0 0 58 57" fill="none" xmlns="http://www.w3.org/2000/svg">
<path fill-rule="evenodd" clip-rule="evenodd" d="M38.274 15.1208C45.8873 18.6594 51.2724 27.506 51.2724 39.3014C51.2724 54.8319 42.1735 55.6183 30.6606 55.6183C19.3334 55.6183 10.0488 54.8319 10.0488 39.3014C10.0488 27.506 15.4339 18.6594 23.2329 15.1208C22.6759 14.5311 22.3045 13.9413 22.3045 13.1549C22.3045 11.9754 23.2329 10.7959 24.9042 10.0095C24.7185 9.81292 24.3471 9.81292 24.1614 9.61633C20.4476 7.65043 18.0336 4.70159 18.7763 2.93228C19.5191 1.16298 23.2329 1.16298 27.1325 3.12887C28.618 3.91523 29.7321 4.70159 30.6606 5.68454C31.5891 4.70159 32.8889 3.91523 34.1887 3.12887C38.0883 1.16298 41.8021 1.16298 42.7306 2.93228C43.4733 4.70159 41.0593 7.65043 37.1598 9.61633C36.9741 9.81292 36.7884 9.81292 36.6027 10.0095C38.0883 10.7959 39.0167 11.9754 39.0167 13.1549C39.0167 13.9413 38.831 14.5311 38.274 15.1208ZM29.7321 20.4288H31.9604V22.0015C32.1461 22.0015 32.7032 22.3946 33.6317 22.7878C33.8174 22.5912 33.8174 22.3946 34.003 22.3946C34.003 22.0015 34.1887 21.8049 34.5601 21.8049H35.1172H35.3029C35.4886 21.8049 35.4886 22.0015 35.6743 22.1981C35.6743 22.1981 35.6743 22.3946 35.6743 22.5912L36.2313 26.1299C36.2313 26.1299 36.2313 26.1299 36.417 26.3264C36.417 27.1128 36.6027 27.506 36.6027 27.7026C36.6027 27.8992 36.2313 27.8992 35.86 27.8992C35.3029 27.8992 35.1172 27.8992 34.9315 27.8992C34.9315 27.8992 34.7458 27.7026 34.5601 27.3094C33.6317 25.5401 32.8889 24.3605 31.9604 23.9674V29.4719C34.1887 30.848 35.4886 32.2241 36.2313 33.4037C36.9741 34.5832 37.3455 35.7627 37.3455 37.3355C37.3455 38.7116 36.9741 39.6945 36.6027 40.4809C36.0457 41.4638 35.4886 42.0536 34.7458 42.4468C34.003 42.84 33.0746 43.0366 31.9604 43.2331V45.3956H29.7321V42.84C28.9894 42.6434 28.4323 42.4468 28.2466 42.2502C28.0609 42.0536 27.8752 42.0536 27.8752 42.0536C27.6895 42.0536 27.5038 42.2502 27.3181 42.6434C27.1325 42.84 27.1325 43.0366 26.9468 43.0366C26.9468 43.0366 26.5754 43.0366 26.0183 43.0366C25.8326 43.0366 25.6469 42.84 25.6469 42.4468L24.9042 37.532C24.9042 37.3355 24.7185 37.1389 24.7185 37.1389C24.7185 36.7457 25.0898 36.5491 25.6469 36.5491C26.204 36.5491 26.3897 36.5491 26.5754 36.7457C26.7611 36.9423 26.9468 37.3355 27.3181 37.9252C28.2466 39.6945 28.9894 40.6775 29.7321 41.0707V34.5832C26.204 32.4207 24.3471 30.0616 24.3471 27.1128C24.3471 26.1299 24.5328 25.1469 24.9042 24.5571C25.0898 23.9674 25.6469 23.181 26.3897 22.7878C27.1325 22.1981 28.2466 21.8049 29.7321 21.8049V20.4288ZM29.7321 28.0957V23.3776C29.1751 23.3776 28.618 23.5742 28.2466 23.9674C27.8752 24.3605 27.6895 24.7537 27.6895 25.1469C27.6895 26.1299 28.4323 27.1128 29.7321 28.0957ZM31.9604 36.1559V41.4638C33.2603 41.2673 34.003 40.4809 34.003 39.3014C34.003 38.1218 33.2603 37.1389 31.9604 36.1559Z" fill="#2B2A29"/>
<path fill-rule="evenodd" clip-rule="evenodd" d="M36.4283 15.9075C44.0416 19.2496 49.4267 28.2927 49.4267 40.0881C49.4267 55.422 40.3278 56.2084 28.8149 56.2084C17.4877 56.2084 8.20312 55.422 8.20312 40.0881C8.20312 28.2927 13.5882 19.2496 21.3872 15.9075C20.8302 15.3178 20.4588 14.5314 20.4588 13.9416C20.4588 12.5655 21.3872 11.386 23.0585 10.5996C22.6871 10.5996 22.5014 10.403 22.3157 10.403C18.6019 8.43714 16.0022 5.4883 16.9306 3.5224C17.6734 1.75309 21.3872 1.94968 25.2868 3.91558C26.7723 4.50535 27.8864 5.48829 28.8149 6.27465C29.7434 5.48829 31.0432 4.50535 32.343 3.91558C36.2426 1.94968 39.9564 1.75309 40.8848 3.5224C41.6276 5.4883 39.2136 8.43714 35.3141 10.403C35.1284 10.403 34.9427 10.5996 34.757 10.5996C36.2426 11.386 37.171 12.5655 37.171 13.9416C37.171 14.5314 36.7996 15.3178 36.4283 15.9075ZM27.8864 21.2155H30.1147V22.7882C30.3004 22.7882 30.8575 22.9848 31.786 23.3779C31.9717 23.3779 31.9717 23.1814 32.1573 22.9848C32.1573 22.7882 32.343 22.5916 32.5287 22.5916H33.2715H33.4572C33.6429 22.5916 33.6429 22.7882 33.8286 22.9848C33.8286 22.9848 33.8286 23.1814 33.8286 23.3779L34.3856 26.72C34.3856 26.9166 34.3856 26.9166 34.5713 27.1131C34.5713 27.7029 34.757 28.0961 34.757 28.2927C34.757 28.4893 34.3856 28.6859 34.0143 28.6859C33.4572 28.6859 33.2715 28.6859 33.0858 28.6859C33.0858 28.6859 32.9001 28.2927 32.7144 27.8995C31.786 26.3268 31.0432 25.1473 30.1147 24.7541V30.062C32.343 31.6347 33.6429 32.8142 34.3856 33.9938C35.1284 35.1733 35.4998 36.5494 35.4998 38.1222C35.4998 39.3017 35.1284 40.4812 34.757 41.2676C34.2 42.054 33.6429 42.6437 32.9001 43.0369C32.1573 43.6267 31.2289 43.8233 30.1147 43.8233V46.1823H27.8864V43.6267C27.1437 43.2335 26.5866 43.0369 26.4009 42.8403C26.2152 42.8403 26.0295 42.6437 26.0295 42.6437C25.6581 42.6437 25.6581 42.8403 25.4724 43.2335C25.2868 43.6267 25.2868 43.6267 25.1011 43.8233C25.1011 43.8233 24.7297 43.8233 24.1726 43.8233C23.9869 43.8233 23.8012 43.6267 23.8012 43.2335L23.0585 38.3188C22.8728 37.9256 22.8728 37.729 22.8728 37.729C22.8728 37.5324 23.2441 37.3358 23.8012 37.3358C24.3583 37.3358 24.544 37.3358 24.7297 37.5324C24.9154 37.5324 25.1011 37.9256 25.4724 38.7119C26.2152 40.2846 27.1437 41.2676 27.8864 41.6608V35.3699C24.3583 33.2074 22.5014 30.6518 22.5014 27.7029C22.5014 26.72 22.6871 25.9336 23.0585 25.3438C23.2441 24.5575 23.8012 23.9677 24.544 23.3779C25.2868 22.7882 26.4009 22.5916 27.8864 22.5916V21.2155ZM27.8864 28.8825V23.9677C27.1437 23.9677 26.7723 24.1643 26.4009 24.5575C26.0295 24.9507 25.8438 25.3438 25.8438 25.9336C25.8438 26.9166 26.5866 27.8995 27.8864 28.8825ZM30.1147 36.746V42.2505C31.4146 42.054 31.9717 41.2676 31.9717 39.8915C31.9717 38.7119 31.4146 37.729 30.1147 36.746Z" fill="#D30131"/>
<path fill-rule="evenodd" clip-rule="evenodd" d="M34.5785 15.9071C42.3775 19.2491 47.7626 28.2922 47.7626 40.0876C47.7626 55.4216 38.478 56.2079 27.1508 56.2079C15.8236 56.2079 6.53906 55.4216 6.53906 40.0876C6.53906 28.2922 11.9241 19.2491 19.7232 15.9071C19.1661 15.3173 18.7947 14.5309 18.7947 13.9412C18.7947 12.565 19.7232 11.3855 21.2087 10.5991C21.023 10.5991 20.8373 10.4025 20.6516 10.4025C16.9378 8.43665 14.3381 5.48781 15.2666 3.52191C16.0093 1.75261 19.7232 1.94919 23.6227 3.91509C24.9225 4.50486 26.2224 5.48781 27.1508 6.27416C28.0793 5.48781 29.3791 4.50486 30.679 3.91509C34.5785 1.94919 38.2923 1.75261 39.0351 3.52191C39.9636 5.48781 37.5496 8.43665 33.65 10.4025C33.4643 10.4025 33.2787 10.5991 33.093 10.5991C34.5785 11.3855 35.507 12.565 35.507 13.9412C35.507 14.5309 35.1356 15.3173 34.5785 15.9071ZM26.2224 21.215H28.4507V22.7877C28.6364 22.7877 29.1934 22.9843 30.1219 23.3775C30.1219 23.3775 30.3076 23.1809 30.3076 22.9843C30.4933 22.7877 30.679 22.5911 30.8647 22.5911H31.6074H31.7931C31.9788 22.5911 31.9788 22.7877 31.9788 22.9843C31.9788 22.9843 32.1645 23.1809 32.1645 23.3775L32.7216 26.7195C32.7216 26.9161 32.7216 26.9161 32.7216 27.1127C32.9073 27.7024 33.093 28.0956 33.093 28.2922C33.093 28.4888 32.7216 28.6854 32.3502 28.6854C31.7931 28.6854 31.4217 28.6854 31.4217 28.6854C31.236 28.6854 31.236 28.2922 31.0504 27.899C30.1219 26.3263 29.3791 25.1468 28.4507 24.7536V30.0615C30.4933 31.6342 31.9788 32.8138 32.7216 33.9933C33.4643 35.1728 33.65 36.549 33.65 38.1217C33.65 39.3012 33.4643 40.4807 32.9073 41.2671C32.5359 42.0535 31.7931 42.6432 31.236 43.0364C30.4933 43.6262 29.5648 43.8228 28.4507 43.8228V46.1818H26.2224V43.6262C25.4796 43.233 24.9225 43.0364 24.7368 42.8398C24.5511 42.8398 24.3655 42.6432 24.1798 42.6432C23.9941 42.6432 23.8084 42.8398 23.8084 43.233C23.6227 43.6262 23.6227 43.6262 23.437 43.8228C23.2513 43.8228 23.0656 43.8228 22.5085 43.8228C22.3229 43.8228 22.1372 43.6262 22.1372 43.233L21.3944 38.3183C21.2087 37.9251 21.2087 37.7285 21.2087 37.7285C21.2087 37.5319 21.5801 37.3353 22.1372 37.3353C22.5085 37.3353 22.8799 37.3353 23.0656 37.5319C23.0656 37.5319 23.437 37.9251 23.8084 38.7114C24.5511 40.2842 25.4796 41.2671 26.2224 41.6603V35.3694C22.6942 33.2069 20.8373 30.6513 20.8373 27.7024C20.8373 26.7195 21.023 25.9331 21.2087 25.3434C21.5801 24.557 22.1372 23.9672 22.8799 23.3775C23.6227 22.7877 24.7368 22.5911 26.2224 22.5911V21.215ZM26.0367 28.882V23.9672C25.4796 23.9672 25.1082 24.1638 24.7368 24.557C24.3655 24.9502 24.1798 25.3434 24.1798 25.9331C24.1798 26.9161 24.7368 27.899 26.0367 28.882ZM28.4507 36.7455V42.2501C29.7505 42.0535 30.3076 41.2671 30.3076 39.891C30.3076 38.7114 29.7505 37.7285 28.4507 36.7455Z" fill="white"/>
</svg>
