<svg width="58" height="57" viewBox="0 0 58 57" fill="none" xmlns="http://www.w3.org/2000/svg">
<path fill-rule="evenodd" clip-rule="evenodd" d="M28.4935 6.04563C28.4935 6.04563 23.7533 16.6871 22.8052 18.6949C20.9091 19.0965 5.55078 21.7067 5.55078 21.7067C5.55078 21.7067 16.7377 33.1513 18.2546 34.5567C17.8754 36.5646 15.6001 53.0287 15.6001 53.0287C15.6001 53.0287 29.2519 45.1982 30.9584 44.1943C32.8545 44.9974 46.696 52.6272 46.696 52.6272C46.696 52.6272 43.8518 36.163 43.4726 34.1552C44.9895 32.7497 55.9868 20.9035 55.9868 20.9035C55.9868 20.9035 40.4389 18.6949 38.5428 18.4941C37.5947 16.4863 30.3896 1.62842 30.3896 1.62842L28.4935 6.04563Z" fill="#2B2A29"/>
<path fill-rule="evenodd" clip-rule="evenodd" d="M26.9583 7.85276C26.9583 7.85276 22.2181 18.4942 21.4597 20.3013C19.374 20.7028 4.01562 23.313 4.01562 23.313C4.01562 23.313 15.3922 34.7576 16.7194 36.1631C16.5298 38.3717 14.0649 54.8359 14.0649 54.8359C14.0649 54.8359 27.9064 46.8046 29.6129 45.8007C31.3193 46.8046 45.3504 54.2335 45.3504 54.2335C45.3504 54.2335 42.5063 37.9701 42.1271 35.7615C43.4543 34.3561 54.4517 22.5099 54.4517 22.5099C54.4517 22.5099 38.9037 20.3013 37.0076 20.1005C36.0596 18.2935 29.044 3.43555 29.044 3.43555L26.9583 7.85276Z" fill="#D30131"/>
<path fill-rule="evenodd" clip-rule="evenodd" d="M26.4019 9.05774C26.4019 9.05774 21.472 19.9 20.7136 21.707C18.8175 22.1086 3.26953 24.7188 3.26953 24.7188C3.26953 24.7188 14.6461 36.1634 16.163 37.5689C15.7837 39.7775 13.3188 56.2416 13.3188 56.2416C13.3188 56.2416 27.1603 48.2103 28.8668 47.2064C30.5733 48.2103 44.6043 55.6393 44.6043 55.6393C44.6043 55.6393 41.7602 39.3759 41.381 37.1673C42.7082 35.7618 53.8952 23.9156 53.8952 23.9156C53.8952 23.9156 38.3472 21.707 36.2615 21.5063C35.5031 19.6992 28.2979 4.84131 28.2979 4.84131L26.4019 9.05774Z" fill="white"/>
</svg>
