<svg width="39" height="40" viewBox="0 0 39 40" fill="none" xmlns="http://www.w3.org/2000/svg">
<path fill-rule="evenodd" clip-rule="evenodd" d="M19.5 1.5948C23.7848 1.5948 27.7416 2.95104 30.9552 5.25449C31.3487 5.38365 31.8733 5.27601 32.3324 4.73782C33.8189 3.01562 34.9557 -0.0843534 35.3492 0.00175691C35.8739 0.109395 36.792 4.52255 36.1581 7.55794C35.9832 8.33293 35.7427 9.0864 35.4585 9.75375C37.6883 12.8752 39 16.6856 39 20.7974C39 31.4105 30.2775 40 19.5 40C8.72253 40 0 31.4105 0 20.7974C0 16.6856 1.31166 12.8752 3.54148 9.75375C3.25729 9.0864 3.01682 8.33293 2.86379 7.55794C2.20796 4.52255 3.12612 0.109395 3.65078 0.00175691C4.04428 -0.0843534 5.18105 3.01562 6.6676 4.73782C7.12668 5.27601 7.65135 5.38365 8.04484 5.25449C11.2584 2.95104 15.2152 1.5948 19.5 1.5948ZM19.5 4.24269C28.9002 4.24269 36.5078 11.7343 36.5078 20.9911C36.5078 30.248 28.9002 37.7611 19.5 37.7611C10.0998 37.7611 2.49215 30.248 2.49215 20.9911C2.49215 11.7343 10.0998 4.24269 19.5 4.24269Z" fill="url(#paint0_linear)"/>
<defs>
<linearGradient id="paint0_linear" x1="19.5007" y1="40.0043" x2="19.5007" y2="0.0103696" gradientUnits="userSpaceOnUse">
<stop stop-color="#EB9E30"/>
<stop offset="0.431373" stop-color="#E4B744"/>
<stop offset="0.701961" stop-color="#F6DB91"/>
<stop offset="1" stop-color="#F6DB91"/>
</linearGradient>
</defs>
</svg>
