<svg width="97" height="130" viewBox="0 0 97 130" fill="none" xmlns="http://www.w3.org/2000/svg">
<path fill-rule="evenodd" clip-rule="evenodd" d="M1.0066 99.1024C0.401939 98.2462 -0.00116436 97.176 -0.00115153 96.1058L0 0L96.5462 3.68033e-07L96.5451 96.1058C96.5451 97.176 96.1419 98.2462 95.5372 99.1024L54.8222 127.57C51.1941 130.139 44.9459 129.925 41.1163 127.142L1.0066 99.1024Z" fill="#900021"/>
<path fill-rule="evenodd" clip-rule="evenodd" d="M3.22537 99.3199C2.62071 98.6778 2.21761 97.6076 2.21762 96.5374L2.21875 1.92993L94.3307 1.92993L94.3296 96.5374C94.3296 97.6076 93.9264 98.6778 93.3217 99.3199L54.4208 126.504C50.9942 128.858 45.1491 128.644 41.5211 126.075L3.22537 99.3199Z" fill="#D30131"/>
<path fill-rule="evenodd" clip-rule="evenodd" d="M6.22311 97.1905C5.61844 96.3343 5.4169 95.4781 5.41691 94.4079L5.41797 5.7937L91.0801 5.7937L91.079 94.4079C91.079 95.4781 90.8774 96.3343 90.2727 97.1905L53.992 123.304C50.7671 125.444 45.325 125.23 41.8985 122.876L6.22311 97.1905Z" stroke="#2B2A29" stroke-linejoin="round" stroke-dasharray="3 3"/>
</svg>
